<svg version="1.1" viewBox="0.0 0.0 800.0 600.0" fill="none" stroke="none" stroke-linecap="square" stroke-miterlimit="10" xmlns:xlink="http://www.w3.org/1999/xlink" xmlns="http://www.w3.org/2000/svg"><clipPath id="p.0"><path d="m0 0l800.0 0l0 600.0l-800.0 0l0 -600.0z" clip-rule="nonzero"/></clipPath><g clip-path="url(#p.0)"><path fill="#000000" fill-opacity="0.0" d="m0 0l800.0 0l0 600.0l-800.0 0z" fill-rule="evenodd"/><path fill="#000000" fill-opacity="0.0" d="m262.05774 209.78781l324.31494 0l0 89.76376l-324.31494 0z" fill-rule="evenodd"/><path stroke="#ffffff" stroke-width="4.0" stroke-linejoin="round" stroke-linecap="butt" d="m262.05774 209.78781l324.31494 0l0 89.76376l-324.31494 0z" fill-rule="evenodd"/><path fill="#ffffff" d="m303.1462 223.65227l24.780334 13.932785l-24.506897 13.932785l-25.029358 -13.932785l24.75592 -13.932785zm27.36789 18.187286l0 27.865555l-24.855072 14.007538l0.24865723 -27.865555l24.606415 -14.007538zm-27.364838 -23.151123c-0.83673096 0 -1.6700134 0.21165466 -2.4167175 0.6345825l-27.36789 15.400665c-0.79626465 0.44770813 -1.4182739 1.0697174 -1.8659973 1.841217c0 0 -0.025177002 0.024795532 -0.049957275 0.024795532l0 0.07475281c-0.42294312 0.72154236 -0.64682007 1.5426178 -0.64682007 2.3884888l0 30.652176c0 1.8164673 0.97021484 3.4833984 2.5627747 4.354065l27.36789 15.4010315c0.67196655 0.37298584 1.4430847 0.5968323 2.23938 0.6220093l0.42294312 0c0.77111816 -0.049957275 1.5178223 -0.24902344 2.189392 -0.6220093l27.368286 -15.4010315c1.5674133 -0.8706665 2.5375977 -2.5375977 2.5375977 -4.354065l0 -30.652176c0 -0.8706665 -0.22387695 -1.716919 -0.64678955 -2.4632416c-0.024810791 0 -0.024810791 -0.024795532 -0.024810791 -0.024795532c-0.47286987 -0.77149963 -1.0948792 -1.3935089 -1.8659973 -1.841217l-27.368286 -15.400665c-0.75891113 -0.42292786 -1.5986633 -0.6345825 -2.4349976 -0.6345825z" fill-rule="evenodd"/><path fill="#000000" fill-opacity="0.0" d="m326.2741 186.27296l279.02362 0l0 120.157486l-279.02362 0z" fill-rule="evenodd"/><path fill="#ffffff" d="m361.94598 220.58797q14.59375 0 22.328125 5.359375q7.75 5.34375 7.75 16.34375q0 13.718765 -13.53125 18.593765q1.84375 2.234375 4.171875 5.453125q2.34375 3.203125 4.765625 6.953125q2.4375 3.75 4.671875 7.6875q2.25 3.9375 4.0 7.734375l-13.71875 0q-1.859375 -3.5 -4.0 -7.046875q-2.140625 -3.5625 -4.328125 -6.921875q-2.1875 -3.359375 -4.328125 -6.328125q-2.140625 -2.96875 -3.984375 -5.296875q-1.375 0.09375 -2.34375 0.09375q-0.96875 0 -1.84375 0l-5.9375 0l0 25.5l-12.265625 0l0 -66.468765q4.484375 -0.984375 9.53125 -1.3125q5.0625 -0.34375 9.0625 -0.34375zm0.875 10.609375q-3.890625 0 -7.203125 0.28125l0 21.8125l5.34375 0q4.484375 0 7.890625 -0.484375q3.40625 -0.5 5.6875 -1.765625q2.296875 -1.265625 3.453125 -3.40625q1.171875 -2.140625 1.171875 -5.4375q0 -3.125 -1.171875 -5.265625q-1.15625 -2.140625 -3.359375 -3.40625q-2.1875 -1.265625 -5.203125 -1.796875q-3.015625 -0.53125 -6.609375 -0.53125zm83.993164 55.95314q-3.40625 0.875 -8.859375 1.796875q-5.453125 0.9375 -11.96875 0.9375q-6.140625 0 -10.28125 -1.75q-4.125 -1.75 -6.609375 -4.859375q-2.484375 -3.125 -3.5625 -7.453125q-1.0625 -4.34375 -1.0625 -9.5l0 -28.51564l11.78125 0l0 26.67189q0 8.171875 2.375 11.6875q2.390625 3.5 8.328125 3.5q2.140625 0 4.515625 -0.1875q2.390625 -0.203125 3.5625 -0.5l0 -41.17189l11.78125 0l0 49.343765zm14.99234 -47.687515q3.40625 -0.96875 8.84375 -1.84375q5.453125 -0.875 12.078125 -0.875q6.234375 0 10.40625 1.703125q4.1875 1.703125 6.671875 4.765625q2.484375 3.0625 3.5 7.40625q1.03125 4.328125 1.03125 9.48439l0 28.609375l-11.78125 0l0 -26.765625q0 -4.09375 -0.546875 -6.9531403q-0.53125 -2.875 -1.75 -4.671875q-1.203125 -1.8125 -3.296875 -2.625q-2.09375 -0.828125 -5.109375 -0.828125q-2.234375 0 -4.671875 0.296875q-2.4375 0.28125 -3.609375 0.46875l0 41.07814l-11.765625 0l0 -49.250015zm68.81198 49.250015l-11.78125 0l0 -50.906265l11.78125 0l0 50.906265zm1.265625 -65.79689q0 3.3125 -2.15625 5.265625q-2.140625 1.9375 -5.046875 1.9375q-3.015625 0 -5.171875 -1.9375q-2.140625 -1.953125 -2.140625 -5.265625q0 -3.40625 2.140625 -5.34375q2.15625 -1.953125 5.171875 -1.953125q2.90625 0 5.046875 1.953125q2.15625 1.9375 2.15625 5.34375zm13.128235 1.46875l11.78125 -1.953125l0 15.375l18.109375 0l0 9.828125l-18.109375 0l0 20.73439q0 6.140625 1.9375 8.765625q1.953125 2.625 6.625 2.625q3.21875 0 5.6875 -0.671875q2.484375 -0.6875 3.953125 -1.28125l1.9375 9.34375q-2.03125 0.875 -5.34375 1.796875q-3.3125 0.9375 -7.796875 0.9375q-5.4375 0 -9.09375 -1.453125q-3.65625 -1.46875 -5.796875 -4.234375q-2.140625 -2.78125 -3.015625 -6.71875q-0.875 -3.953125 -0.875 -9.015625l0 -44.07814z" fill-rule="nonzero"/></g></svg>